<svg xmlns="http://www.w3.org/2000/svg" width="143" height="30.755" viewBox="0 0 143 30.755">
  <g id="Group_283" data-name="Group 283" transform="translate(-841.5 -1108.199)">
    <text id="Lorem_Ipsum" data-name="Lorem Ipsum" transform="translate(927.5 1131)" fill="#383844" font-size="18" font-family="DMSerifDisplay-Regular, DM Serif Display" letter-spacing="0.04em"><tspan x="-56.007" y="0">Lorem Ipsum</tspan></text>
    <path id="Path_515" data-name="Path 515" d="M236.622,751.472l-.067-.031c-.249-.181-.485-.386-.712-.584a6.248,6.248,0,0,0-1.5-1.056,8.4,8.4,0,0,0-3.389.129c-.534.076-1.086.155-1.563.2a1.933,1.933,0,0,1-1.5-.431,2.466,2.466,0,0,1-.79-1.869c0-1.211,0-1.664-.854-1.914-.172-.051-.191-.236-.191-.619s0-.88-.511-1.03c-.144-.042-.173-.1-.183-.117-.08-.152.048-.486.172-.81.057-.149.115-.3.163-.455.206-.666-.423-.895-1.151-1.16a10.084,10.084,0,0,1-1.261-.532.6.6,0,0,1-.34-.367c-.137-.495.422-1.35,1.013-2.256a18.373,18.373,0,0,0,1.04-1.73,3.3,3.3,0,0,0-.184-3.058,5.494,5.494,0,0,1-.57-2.978c.523-4.371,4.117-7.27,5.7-8.346a.238.238,0,0,0,.115-.094.213.213,0,0,0,.01-.2.223.223,0,0,0-.148-.12.253.253,0,0,0-.138.005c-8.442.6-15.045,7.327-15.045,15.35,0,8.487,7.3,15.393,16.274,15.393a17.072,17.072,0,0,0,5.577-.927.219.219,0,0,0,.149-.187A.214.214,0,0,0,236.622,751.472Z" transform="translate(626.759 386.164)" fill="#383844"/>
  </g>
</svg>
